<?xml version="1.0" encoding="UTF-8" standalone="no"?>
<!-- Created with Inkscape (http://www.inkscape.org/) -->

<svg
   xmlns:dc="http://purl.org/dc/elements/1.1/"
   xmlns:cc="http://creativecommons.org/ns#"
   xmlns:rdf="http://www.w3.org/1999/02/22-rdf-syntax-ns#"
   xmlns:svg="http://www.w3.org/2000/svg"
   xmlns="http://www.w3.org/2000/svg"
   xmlns:sodipodi="http://sodipodi.sourceforge.net/DTD/sodipodi-0.dtd"
   xmlns:inkscape="http://www.inkscape.org/namespaces/inkscape"
   width="64mm"
   height="64mm"
   viewBox="0 0 64 63.999997"
   version="1.1"
   id="svg8"
   inkscape:export-filename="C:\OSGeo4W64\loghi\logo_qgis_3_my2.png"
   inkscape:export-xdpi="90"
   inkscape:export-ydpi="90"
   inkscape:version="0.92.1 r15371"
   sodipodi:docname="qgis-logo ita_toto_QUADRATO_centrale.svg">
  <defs
     id="defs2" />
  <sodipodi:namedview
     id="base"
     pagecolor="#ffffff"
     bordercolor="#666666"
     borderopacity="1.0"
     inkscape:pageopacity="0.0"
     inkscape:pageshadow="2"
     inkscape:zoom="3.5139974"
     inkscape:cx="120.94488"
     inkscape:cy="120.94488"
     inkscape:document-units="mm"
     inkscape:current-layer="layer1"
     showgrid="false"
     fit-margin-top="0"
     fit-margin-left="0.2"
     fit-margin-right="0"
     fit-margin-bottom="0"
     inkscape:window-width="1920"
     inkscape:window-height="1051"
     inkscape:window-x="-9"
     inkscape:window-y="-9"
     inkscape:window-maximized="1"
     showguides="true"
     inkscape:guide-bbox="true"
     inkscape:snap-grids="false"
     inkscape:snap-to-guides="false"
     inkscape:snap-others="false"
     inkscape:object-nodes="false" />
  <metadata
     id="metadata5">
    <rdf:RDF>
      <cc:Work
         rdf:about="">
        <dc:format>image/svg+xml</dc:format>
        <dc:type
           rdf:resource="http://purl.org/dc/dcmitype/StillImage" />
        <dc:title></dc:title>
      </cc:Work>
    </rdf:RDF>
  </metadata>
  <g
     inkscape:label="Livello 1"
     inkscape:groupmode="layer"
     id="layer1"
     transform="translate(-12.404203,-70.70873)">
    <flowRoot
       xml:space="preserve"
       id="flowRoot882"
       style="font-style:normal;font-variant:normal;font-weight:normal;font-stretch:normal;font-size:10.66666698px;line-height:125%;font-family:Trueno;-inkscape-font-specification:Trueno;letter-spacing:0px;word-spacing:0px;fill:#000000;fill-opacity:1;stroke:none;stroke-width:1px;stroke-linecap:butt;stroke-linejoin:miter;stroke-opacity:1"
       transform="matrix(0.26458333,0,0,0.26458333,12.271189,120.4911)"><flowRegion
         id="flowRegion884"><rect
           id="rect886"
           width="7.6565075"
           height="13.224876"
           x="66.124382"
           y="40.21682" /></flowRegion><flowPara
         id="flowPara888" /></flowRoot>    <flowRoot
       xml:space="preserve"
       id="flowRoot890"
       style="font-style:normal;font-variant:normal;font-weight:normal;font-stretch:normal;font-size:10.66666698px;line-height:125%;font-family:Trueno;-inkscape-font-specification:Trueno;letter-spacing:0px;word-spacing:0px;fill:#000000;fill-opacity:1;stroke:none;stroke-width:1px;stroke-linecap:butt;stroke-linejoin:miter;stroke-opacity:1"
       transform="matrix(0.26458333,0,0,0.26458333,12.271189,120.4911)"><flowRegion
         id="flowRegion892"><rect
           id="rect894"
           width="1.9895197e-013"
           height="15.313015"
           x="70.439873"
           y="38.128681" /></flowRegion><flowPara
         id="flowPara896" /></flowRoot>    <flowRoot
       xml:space="preserve"
       id="flowRoot900"
       style="font-style:normal;font-variant:normal;font-weight:normal;font-stretch:normal;font-size:10.66666698px;line-height:125%;font-family:Trueno;-inkscape-font-specification:Trueno;letter-spacing:0px;word-spacing:0px;fill:#000000;fill-opacity:1;stroke:none;stroke-width:1px;stroke-linecap:butt;stroke-linejoin:miter;stroke-opacity:1"
       transform="matrix(0.26458333,0,0,0.26458333,12.271189,120.4911)"><flowRegion
         id="flowRegion902"><rect
           id="rect904"
           width="0"
           height="12.250412"
           x="70.439873"
           y="25.321434" /></flowRegion><flowPara
         id="flowPara906" /></flowRoot>    <path
       inkscape:connector-curvature="0"
       id="rect9068-8"
       d="m 45.068028,135.34237 h 5.32789 v 14.9787 h -5.32789 z"
       style="opacity:1;fill:#ffffff;fill-opacity:1;fill-rule:nonzero;stroke:#ffffff;stroke-width:0.09999999;stroke-linecap:square;stroke-linejoin:round;stroke-miterlimit:4;stroke-dasharray:none;stroke-dashoffset:0;stroke-opacity:1;paint-order:fill markers stroke" />
    <path
       style="opacity:1;fill:#ce2b37;fill-opacity:1;fill-rule:nonzero;stroke:#ffffff;stroke-width:0.09999997;stroke-linecap:square;stroke-linejoin:round;stroke-miterlimit:4;stroke-dasharray:none;stroke-dashoffset:0;stroke-opacity:1;paint-order:fill markers stroke"
       d="m 51.827861,118.43872 a 18.090448,18.320309 0 0 0 0.894312,-0.4058 18.090448,18.320309 0 0 0 1.569306,-0.91118 18.090448,18.320309 0 0 0 1.471047,-1.06499 18.090448,18.320309 0 0 0 1.358548,-1.20881 18.090448,18.320309 0 0 0 1.231804,-1.33976 18.090448,18.320309 0 0 0 1.095105,-1.45796 18.090448,18.320309 0 0 0 0.945567,-1.56046 18.090448,18.320309 0 0 0 0.786082,-1.65013 18.090448,18.320309 0 0 0 0.619456,-1.71992 18.090448,18.320309 0 0 0 0.447161,-1.77405 18.090448,18.320309 0 0 0 0.270567,-1.81105 18.090448,18.320309 0 0 0 0.09113,-1.82812 18.090448,18.320309 0 0 0 -0.04558,-1.29706 A 18.090448,18.320309 0 0 0 62.344494,98.592664 18.090448,18.320309 0 0 0 61.948606,96.805843 18.090448,18.320309 0 0 0 61.37756,95.067432 18.090448,18.320309 0 0 0 60.639902,93.395921 18.090448,18.320309 0 0 0 59.7399,91.806971 18.090448,18.320309 0 0 0 58.687523,90.317697 18.090448,18.320309 0 0 0 57.494167,88.942332 18.090448,18.320309 0 0 0 56.171221,87.693651 18.090448,18.320309 0 0 0 54.731505,86.585968 18.090448,18.320309 0 0 0 53.19067,85.627773 18.090448,18.320309 0 0 0 51.82785,84.961438 Z"
       id="path9140"
       inkscape:connector-curvature="0" />
    <path
       style="opacity:1;fill:#009246;fill-opacity:1;fill-rule:nonzero;stroke:#ffffff;stroke-width:0.09999997;stroke-linecap:square;stroke-linejoin:round;stroke-miterlimit:4;stroke-dasharray:none;stroke-dashoffset:0;stroke-opacity:1;paint-order:fill markers stroke"
       d="m 37.145861,84.871652 a 18.090449,18.320309 0 0 0 -1.164874,0.526821 18.090449,18.320309 0 0 0 -1.56788,0.911186 18.090449,18.320309 0 0 0 -1.47105,1.064987 18.090449,18.320309 0 0 0 -1.358548,1.208816 18.090449,18.320309 0 0 0 -1.231806,1.339758 18.090449,18.320309 0 0 0 -1.095103,1.457953 18.090449,18.320309 0 0 0 -0.945567,1.561889 18.090449,18.320309 0 0 0 -0.786085,1.648707 18.090449,18.320309 0 0 0 -0.619461,1.719921 18.090449,18.320309 0 0 0 -0.448576,1.774045 18.090449,18.320309 0 0 0 -0.269139,1.811053 18.090449,18.320309 0 0 0 -0.09113,1.829542 18.090449,18.320309 0 0 0 0.04558,1.29564 18.090449,18.320309 0 0 0 0.217899,1.81816 18.090449,18.320309 0 0 0 0.39588,1.78683 18.090449,18.320309 0 0 0 0.571052,1.73701 18.090449,18.320309 0 0 0 0.737663,1.67153 18.090449,18.320309 0 0 0 0.899996,1.58893 18.090449,18.320309 0 0 0 1.052377,1.48927 18.090449,18.320309 0 0 0 1.193359,1.37537 18.090449,18.320309 0 0 0 1.322944,1.24865 18.090449,18.320309 0 0 0 1.439718,1.10914 18.090449,18.320309 0 0 0 1.540827,0.95676 18.090449,18.320309 0 0 0 1.629123,0.79588 18.090449,18.320309 0 0 0 0.003,10e-4 z"
       id="path9158"
       inkscape:connector-curvature="0" />
    <path
       style="opacity:1;fill:#ffffff;fill-opacity:1;fill-rule:nonzero;stroke:none;stroke-width:0.02;stroke-linecap:square;stroke-linejoin:round;stroke-miterlimit:4;stroke-dasharray:none;stroke-dashoffset:0;stroke-opacity:1;paint-order:fill markers stroke"
       d="m 52.310293,85.163413 a 18.036092,18.437284 0 0 0 -0.823206,-0.406793 18.036092,18.437284 0 0 0 -1.693436,-0.631573 18.036092,18.437284 0 0 0 -1.747179,-0.456338 18.036092,18.437284 0 0 0 -1.782321,-0.275368 18.036092,18.437284 0 0 0 -1.800923,-0.09179 18.036092,18.437284 0 0 0 -1.275374,0.0459 18.036092,18.437284 0 0 0 -1.790073,0.222171 18.036092,18.437284 0 0 0 -1.759066,0.403665 18.036092,18.437284 0 0 0 -1.711006,0.580983 18.036092,18.437284 0 0 0 -1.128096,0.516315 v 33.334085 a 18.036092,18.437284 0 0 0 0.640271,0.31605 18.036092,18.437284 0 0 0 1.693437,0.63157 18.036092,18.437284 0 0 0 1.747179,0.45634 18.036092,18.437284 0 0 0 1.78232,0.27537 18.036092,18.437284 0 0 0 1.800408,0.0918 18.036092,18.437284 0 0 0 1.27589,-0.0459 18.036092,18.437284 0 0 0 1.790073,-0.22216 18.036092,18.437284 0 0 0 1.759066,-0.40367 18.036092,18.437284 0 0 0 1.710489,-0.58098 18.036092,18.437284 0 0 0 1.311547,-0.60029 z"
       id="path9208"
       inkscape:connector-curvature="0" />
    <ellipse
       style="opacity:1;fill:none;fill-opacity:1;fill-rule:nonzero;stroke:#000000;stroke-width:0.1;stroke-linecap:square;stroke-linejoin:round;stroke-miterlimit:4;stroke-dasharray:none;stroke-dashoffset:0;stroke-opacity:1;paint-order:fill markers stroke"
       id="path9212"
       cx="44.375881"
       cy="101.70274"
       rx="18.247873"
       ry="18.271542" />
    <g
       id="g4520"
       transform="matrix(0.40870582,0,0,0.40217812,-32.244893,32.978086)"
       style="stroke:#000000;stroke-width:0.12332619;stroke-miterlimit:4;stroke-dasharray:none;stroke-dashoffset:0">
      <polygon
         id="polygon3"
         points="176,162 176,183.433 195,202.37 195,180 216.513,180 198.306,162 "
         style="fill:#ee7913;fill-opacity:1;stroke:none;stroke-width:0.12332619;stroke-miterlimit:4;stroke-dasharray:none;stroke-dashoffset:0" />
      <polygon
         id="polygon31"
         points="204,211.34 240.782,248 264,248 264,226.946 225.617,189 204,189 "
         style="fill:#93b023;fill-opacity:1;stroke:none;stroke-width:0.12332619;stroke-miterlimit:4;stroke-dasharray:none;stroke-dashoffset:0" />
      <polygon
         id="polygon33"
         points="195,180 195,202.37 204,211.34 204,189 225.617,189 216.513,180 "
         style="fill:#f0e64a;fill-opacity:1;stroke:none;stroke-width:0.12332619;stroke-miterlimit:4;stroke-dasharray:none;stroke-dashoffset:0" />
      <path
         id="path40"
         d="m 198.052,216.864 c -3.259,0.75 -6.648,1.157 -10.144,1.157 -25.005,0 -46.271,-20.562 -46.271,-47.222 0,-26.66 21.032,-46.769 46.271,-46.769 25.239,0 45.336,20.108 45.336,46.769 0,4.336 -0.54,8.508 -1.539,12.46 l 23.144,23.14 c 5.967,-10.455 9.305,-22.611 9.305,-35.778 0,-41.09 -32.791,-71.856 -76.714,-71.856 -43.722,0 -76.512,30.564 -76.512,71.856 0,41.494 32.791,72.666 76.512,72.666 11.287,0 21.835,-2.076 31.284,-5.854 z"
         inkscape:connector-curvature="0"
         style="fill:#93b023;fill-opacity:1;stroke:none;stroke-width:0.12332621;stroke-miterlimit:4;stroke-dasharray:none;stroke-dashoffset:0" />
      <path
         sodipodi:nodetypes="ccccccc"
         inkscape:connector-curvature="0"
         style="fill:#008000;fill-opacity:0.17254902;stroke:none;stroke-width:0.12332619;stroke-miterlimit:4;stroke-dasharray:none;stroke-dashoffset:0"
         id="polygon4174"
         d="m 176,162 88,86 V 226.94531 L 225.61719,189 l -9.10352,-9 -18.20703,-18 z" />
    </g>
  </g>
</svg>
