<?xml version="1.0" encoding="UTF-8" standalone="no"?>
<!-- Created with Inkscape (http://www.inkscape.org/) -->

<svg
   xmlns:dc="http://purl.org/dc/elements/1.1/"
   xmlns:cc="http://creativecommons.org/ns#"
   xmlns:rdf="http://www.w3.org/1999/02/22-rdf-syntax-ns#"
   xmlns:svg="http://www.w3.org/2000/svg"
   xmlns="http://www.w3.org/2000/svg"
   xmlns:sodipodi="http://sodipodi.sourceforge.net/DTD/sodipodi-0.dtd"
   xmlns:inkscape="http://www.inkscape.org/namespaces/inkscape"
   width="64mm"
   height="64mm"
   viewBox="0 0 64 63.999997"
   version="1.1"
   id="svg8"
   inkscape:export-filename="C:\OSGeo4W64\loghi\logo_qgis_3_my2.png"
   inkscape:export-xdpi="90"
   inkscape:export-ydpi="90"
   inkscape:version="0.92.1 r15371"
   sodipodi:docname="qgis-logo ita_toto_QUADRATO_centrale.svg">
  <defs
     id="defs2" />
  <sodipodi:namedview
     id="base"
     pagecolor="#ffffff"
     bordercolor="#666666"
     borderopacity="1.0"
     inkscape:pageopacity="0.0"
     inkscape:pageshadow="2"
     inkscape:zoom="3.5139974"
     inkscape:cx="120.94488"
     inkscape:cy="120.94488"
     inkscape:document-units="mm"
     inkscape:current-layer="layer1"
     showgrid="false"
     fit-margin-top="0"
     fit-margin-left="0.2"
     fit-margin-right="0"
     fit-margin-bottom="0"
     inkscape:window-width="1920"
     inkscape:window-height="1051"
     inkscape:window-x="-9"
     inkscape:window-y="-9"
     inkscape:window-maximized="1"
     showguides="true"
     inkscape:guide-bbox="true"
     inkscape:snap-grids="false"
     inkscape:snap-to-guides="false"
     inkscape:snap-others="false"
     inkscape:object-nodes="false" />
  <metadata
     id="metadata5">
    <rdf:RDF>
      <cc:Work
         rdf:about="">
        <dc:format>image/svg+xml</dc:format>
        <dc:type
           rdf:resource="http://purl.org/dc/dcmitype/StillImage" />
        <dc:title></dc:title>
      </cc:Work>
    </rdf:RDF>
  </metadata>
  <g
     inkscape:label="Livello 1"
     inkscape:groupmode="layer"
     id="layer1"
     transform="translate(-12.404203,-70.70873)">
    <flowRoot
       xml:space="preserve"
       id="flowRoot882"
       style="font-style:normal;font-variant:normal;font-weight:normal;font-stretch:normal;font-size:10.66666698px;line-height:125%;font-family:Trueno;-inkscape-font-specification:Trueno;letter-spacing:0px;word-spacing:0px;fill:#000000;fill-opacity:1;stroke:none;stroke-width:1px;stroke-linecap:butt;stroke-linejoin:miter;stroke-opacity:1"
       transform="matrix(0.26458333,0,0,0.26458333,12.271189,120.4911)"><flowRegion
         id="flowRegion884"><rect
           id="rect886"
           width="7.6565075"
           height="13.224876"
           x="66.124382"
           y="40.21682" /></flowRegion><flowPara
         id="flowPara888" /></flowRoot>    <flowRoot
       xml:space="preserve"
       id="flowRoot890"
       style="font-style:normal;font-variant:normal;font-weight:normal;font-stretch:normal;font-size:10.66666698px;line-height:125%;font-family:Trueno;-inkscape-font-specification:Trueno;letter-spacing:0px;word-spacing:0px;fill:#000000;fill-opacity:1;stroke:none;stroke-width:1px;stroke-linecap:butt;stroke-linejoin:miter;stroke-opacity:1"
       transform="matrix(0.26458333,0,0,0.26458333,12.271189,120.4911)"><flowRegion
         id="flowRegion892"><rect
           id="rect894"
           width="1.9895197e-013"
           height="15.313015"
           x="70.439873"
           y="38.128681" /></flowRegion><flowPara
         id="flowPara896" /></flowRoot>    <flowRoot
       xml:space="preserve"
       id="flowRoot900"
       style="font-style:normal;font-variant:normal;font-weight:normal;font-stretch:normal;font-size:10.66666698px;line-height:125%;font-family:Trueno;-inkscape-font-specification:Trueno;letter-spacing:0px;word-spacing:0px;fill:#000000;fill-opacity:1;stroke:none;stroke-width:1px;stroke-linecap:butt;stroke-linejoin:miter;stroke-opacity:1"
       transform="matrix(0.26458333,0,0,0.26458333,12.271189,120.4911)"><flowRegion
         id="flowRegion902"><rect
           id="rect904"
           width="0"
           height="12.250412"
           x="70.439873"
           y="25.321434" /></flowRegion><flowPara
         id="flowPara906" /></flowRoot>    <path
       inkscape:connector-curvature="0"
       id="rect9068-8"
       d="m 45.068028,135.34237 h 5.32789 v 14.9787 h -5.32789 z"
       style="opacity:1;fill:#ffffff;fill-opacity:1;fill-rule:nonzero;stroke:#ffffff;stroke-width:0.09999999;stroke-linecap:square;stroke-linejoin:round;stroke-miterlimit:4;stroke-dasharray:none;stroke-dashoffset:0;stroke-opacity:1;paint-order:fill markers stroke" />
    <g
       id="g9181"
       transform="matrix(2.7474333,0,0,2.7474333,-22.644717,-234.42532)"
       style="stroke-width:0.36397609">
      <path
         inkscape:connector-curvature="0"
         id="path9140"
         d="m 27.106237,128.43407 a 6.5844903,6.6681542 0 0 0 0.325508,-0.1477 6.5844903,6.6681542 0 0 0 0.57119,-0.33165 6.5844903,6.6681542 0 0 0 0.535426,-0.38763 6.5844903,6.6681542 0 0 0 0.494479,-0.43998 6.5844903,6.6681542 0 0 0 0.448347,-0.48764 6.5844903,6.6681542 0 0 0 0.398592,-0.53066 6.5844903,6.6681542 0 0 0 0.344164,-0.56797 6.5844903,6.6681542 0 0 0 0.286115,-0.60061 6.5844903,6.6681542 0 0 0 0.225467,-0.62601 6.5844903,6.6681542 0 0 0 0.162756,-0.64571 6.5844903,6.6681542 0 0 0 0.09848,-0.65918 6.5844903,6.6681542 0 0 0 0.03317,-0.66539 6.5844903,6.6681542 0 0 0 -0.01659,-0.4721 6.5844903,6.6681542 0 0 0 -0.0793,-0.66126 6.5844903,6.6681542 0 0 0 -0.144094,-0.65036 6.5844903,6.6681542 0 0 0 -0.207847,-0.63274 6.5844903,6.6681542 0 0 0 -0.26849,-0.60839 6.5844903,6.6681542 0 0 0 -0.327579,-0.57834 6.5844903,6.6681542 0 0 0 -0.38304,-0.54206 6.5844903,6.6681542 0 0 0 -0.434353,-0.5006 6.5844903,6.6681542 0 0 0 -0.481521,-0.45449 6.5844903,6.6681542 0 0 0 -0.524022,-0.40317 6.5844903,6.6681542 0 0 0 -0.560827,-0.34876 6.5844903,6.6681542 0 0 0 -0.496034,-0.24253 z"
         style="opacity:1;fill:#ce2b37;fill-opacity:1;fill-rule:nonzero;stroke:#ffffff;stroke-width:0.0363976;stroke-linecap:square;stroke-linejoin:round;stroke-miterlimit:4;stroke-dasharray:none;stroke-dashoffset:0;stroke-opacity:1;paint-order:fill markers stroke" />
      <path
         inkscape:connector-curvature="0"
         id="path9158"
         d="m 21.76234,116.21646 a 6.5844906,6.6681542 0 0 0 -0.423986,0.19175 6.5844906,6.6681542 0 0 0 -0.570671,0.33165 6.5844906,6.6681542 0 0 0 -0.535427,0.38763 6.5844906,6.6681542 0 0 0 -0.494479,0.43998 6.5844906,6.6681542 0 0 0 -0.448348,0.48764 6.5844906,6.6681542 0 0 0 -0.398591,0.53066 6.5844906,6.6681542 0 0 0 -0.344164,0.56849 6.5844906,6.6681542 0 0 0 -0.286116,0.60009 6.5844906,6.6681542 0 0 0 -0.225469,0.62601 6.5844906,6.6681542 0 0 0 -0.163271,0.64571 6.5844906,6.6681542 0 0 0 -0.09796,0.65918 6.5844906,6.6681542 0 0 0 -0.03317,0.66591 6.5844906,6.6681542 0 0 0 0.01659,0.47158 6.5844906,6.6681542 0 0 0 0.07931,0.66177 6.5844906,6.6681542 0 0 0 0.144091,0.65036 6.5844906,6.6681542 0 0 0 0.207849,0.63223 6.5844906,6.6681542 0 0 0 0.268492,0.6084 6.5844906,6.6681542 0 0 0 0.327577,0.57833 6.5844906,6.6681542 0 0 0 0.38304,0.54206 6.5844906,6.6681542 0 0 0 0.434354,0.5006 6.5844906,6.6681542 0 0 0 0.48152,0.45448 6.5844906,6.6681542 0 0 0 0.524023,0.4037 6.5844906,6.6681542 0 0 0 0.560824,0.34824 6.5844906,6.6681542 0 0 0 0.592962,0.28968 6.5844906,6.6681542 0 0 0 0.0011,5.3e-4 z"
         style="opacity:1;fill:#009246;fill-opacity:1;fill-rule:nonzero;stroke:#ffffff;stroke-width:0.0363976;stroke-linecap:square;stroke-linejoin:round;stroke-miterlimit:4;stroke-dasharray:none;stroke-dashoffset:0;stroke-opacity:1;paint-order:fill markers stroke" />
      <path
         inkscape:connector-curvature="0"
         id="path9111-6-3"
         d="m 30.990483,122.34917 a 6.5647059,6.6494123 0 0 1 -6.564706,6.64941 6.5647059,6.6494123 0 0 1 -6.564706,-6.64941 6.5647059,6.6494123 0 0 1 6.564706,-6.64942 6.5647059,6.6494123 0 0 1 6.564706,6.64942 z"
         style="opacity:1;fill:none;fill-opacity:1;fill-rule:nonzero;stroke:#000000;stroke-width:0.00727952;stroke-linecap:square;stroke-linejoin:round;stroke-miterlimit:4;stroke-dasharray:none;stroke-dashoffset:0;stroke-opacity:1;paint-order:fill markers stroke" />
      <g
         style="stroke:#000000;stroke-width:0.12332619;stroke-miterlimit:4;stroke-dasharray:none;stroke-dashoffset:0"
         transform="matrix(0.14875914,0,0,0.14638321,-3.4942348,97.328443)"
         id="g4520">
        <polygon
           style="fill:#ee7913;fill-opacity:1;stroke:none;stroke-width:0.12332619;stroke-miterlimit:4;stroke-dasharray:none;stroke-dashoffset:0"
           points="216.513,180 198.306,162 176,162 176,183.433 195,202.37 195,180 "
           id="polygon3" />
        <polygon
           style="fill:#93b023;fill-opacity:1;stroke:none;stroke-width:0.12332619;stroke-miterlimit:4;stroke-dasharray:none;stroke-dashoffset:0"
           points="225.617,189 204,189 204,211.34 240.782,248 264,248 264,226.946 "
           id="polygon31" />
        <polygon
           style="fill:#f0e64a;fill-opacity:1;stroke:none;stroke-width:0.12332619;stroke-miterlimit:4;stroke-dasharray:none;stroke-dashoffset:0"
           points="225.617,189 216.513,180 195,180 195,202.37 204,211.34 204,189 "
           id="polygon33" />
        <path
           style="fill:#93b023;fill-opacity:1;stroke:none;stroke-width:0.12332621;stroke-miterlimit:4;stroke-dasharray:none;stroke-dashoffset:0"
           inkscape:connector-curvature="0"
           d="m 198.052,216.864 c -3.259,0.75 -6.648,1.157 -10.144,1.157 -25.005,0 -46.271,-20.562 -46.271,-47.222 0,-26.66 21.032,-46.769 46.271,-46.769 25.239,0 45.336,20.108 45.336,46.769 0,4.336 -0.54,8.508 -1.539,12.46 l 23.144,23.14 c 5.967,-10.455 9.305,-22.611 9.305,-35.778 0,-41.09 -32.791,-71.856 -76.714,-71.856 -43.722,0 -76.512,30.564 -76.512,71.856 0,41.494 32.791,72.666 76.512,72.666 11.287,0 21.835,-2.076 31.284,-5.854 z"
           id="path40" />
        <path
           d="m 176,162 88,86 V 226.94531 L 225.61719,189 l -9.10352,-9 -18.20703,-18 z"
           id="polygon4174"
           style="fill:#008000;fill-opacity:0.17254902;stroke:none;stroke-width:0.12332619;stroke-miterlimit:4;stroke-dasharray:none;stroke-dashoffset:0"
           inkscape:connector-curvature="0"
           sodipodi:nodetypes="ccccccc" />
      </g>
    </g>
  </g>
</svg>
