<?xml version="1.0" encoding="UTF-8" standalone="no"?>
<svg
   xmlns:dc="http://purl.org/dc/elements/1.1/"
   xmlns:cc="http://creativecommons.org/ns#"
   xmlns:rdf="http://www.w3.org/1999/02/22-rdf-syntax-ns#"
   xmlns:svg="http://www.w3.org/2000/svg"
   xmlns="http://www.w3.org/2000/svg"
   xml:space="preserve"
   enable-background="new 0 0 128 128"
   viewBox="0 0 128 128"
   height="128px"
   width="128px"
   y="0px"
   x="0px"
   id="Layer_1"
   version="1.1"><metadata
     id="metadata88"><rdf:RDF><cc:Work
         rdf:about=""><dc:format>image/svg+xml</dc:format><dc:type
           rdf:resource="http://purl.org/dc/dcmitype/StillImage" /><dc:title></dc:title></cc:Work></rdf:RDF></metadata><defs
     id="defs86" /><linearGradient
     gradientTransform="matrix(1 0 0 -1 -300.5195 -92.5547)"
     y2="-97.5023"
     x2="400.6479"
     y1="-220.8706"
     x1="402.5244"
     gradientUnits="userSpaceOnUse"
     id="SVGID_1_"><stop
       id="stop65"
       style="stop-color:#589632"
       offset="0" /><stop
       id="stop67"
       style="stop-color:#93B023"
       offset="1" /></linearGradient><linearGradient
     gradientTransform="matrix(1 0 0 -1 -300.5195 -92.5547)"
     y2="-98.227"
     x2="363.5923"
     y1="-221.1455"
     x1="365.4619"
     gradientUnits="userSpaceOnUse"
     id="SVGID_2_"><stop
       id="stop74"
       style="stop-color:#589632"
       offset="0" /><stop
       id="stop76"
       style="stop-color:#93B023"
       offset="1" /></linearGradient><path
     id="path79"
     d="M68.923,101.552c-1.165,0.242-1.769,0.157-4.685,0.157c-20.866,0-38.612-17.158-38.612-39.406  c0-22.248,17.551-39.027,38.612-39.027s37.833,16.78,37.833,39.027c0,3.619-0.451,7.099-1.284,10.398L120.1,92.012  c4.979-8.726,7.765-18.869,7.765-29.857c0-34.289-27.363-59.963-64.016-59.963C27.363,2.191,0,27.696,0,62.154  c0,34.625,27.363,60.638,63.848,60.638c9.417,0,16.069-1.469,23.042-3.761L68.923,101.552z"
     fill="url(#SVGID_2_)" /><g
     style="stroke-width:0.99673855"
     transform="matrix(1.0032721,0,0,1.0032721,-0.64369244,-0.17913294)"
     id="g3796"><polygon
       transform="matrix(0.83446006,0,0,0.83446006,-93.781971,-80.557518)"
       style="fill:#009246;fill-opacity:1;stroke-width:1.19447124"
       id="polygon3"
       points="176,162 176,183.433 195,202.37 195,180 216.513,180 198.306,162 " /><polygon
       transform="matrix(0.83446006,0,0,0.83446006,-93.781971,-80.557518)"
       style="fill:#ce2b37;fill-opacity:1;stroke-width:1.19447124"
       id="polygon31"
       points="204,211.34 240.782,248 264,248 264,226.946 225.617,189 204,189 " /><polygon
       transform="matrix(0.83446006,0,0,0.83446006,-93.781971,-80.557518)"
       style="fill:#f1f2f1;fill-opacity:1;stroke-width:1.19447124"
       id="polygon33"
       points="195,180 195,202.37 204,211.34 204,189 225.617,189 216.513,180 " /><path
       style="fill:#ffffff;fill-opacity:0.17254902;stroke-width:0.99673855"
       id="polygon4174"
       d="m 53.083,54.625 73.43249,71.76356 V 108.81927 L 94.486566,77.155422 86.890039,69.645282 71.697,54.625 Z" /><g
       id="text4155"
       style="font-style:normal;font-weight:normal;font-size:10.01352119px;line-height:0%;font-family:sans-serif;letter-spacing:0px;word-spacing:0px;fill:#ffffff;fill-opacity:1;stroke:none;stroke-width:0.99673855px;stroke-linecap:butt;stroke-linejoin:miter;stroke-opacity:1"
       transform="rotate(45.23218)"
       aria-label="ITA"><path
         id="path4495"
         style="font-style:normal;font-variant:normal;font-weight:bold;font-stretch:normal;font-size:20.93656349px;line-height:1.25;font-family:sans-serif;-inkscape-font-specification:'sans-serif Bold';letter-spacing:5.23414087px;fill:#ffffff;fill-opacity:1;stroke-width:0.99673855px"
         d="m 121.43875,-7.6557389 h 3.93583 V 7.6070976 h -3.93583 z" /><path
         id="path4497"
         style="font-style:normal;font-variant:normal;font-weight:bold;font-stretch:normal;font-size:20.93656349px;line-height:1.25;font-family:sans-serif;-inkscape-font-specification:'sans-serif Bold';letter-spacing:5.23414087px;fill:#ffffff;fill-opacity:1;stroke-width:0.99673855px"
         d="m 132.66353,-7.6557389 h 14.06675 v 2.974873 h -5.06035 V 7.6070976 H 137.7341 V -4.6808659 h -5.07057 z" /><path
         id="path4499"
         style="font-style:normal;font-variant:normal;font-weight:bold;font-stretch:normal;font-size:20.93656349px;line-height:1.25;font-family:sans-serif;-inkscape-font-specification:'sans-serif Bold';letter-spacing:5.23414087px;fill:#ffffff;fill-opacity:1;stroke-width:0.99673855px"
         d="m 161.61487,4.8264603 h -6.15421 l -0.97117,2.7806373 h -3.95628 l 5.65328,-15.2628365 h 4.69233 l 5.65328,15.2628365 h -3.95627 z m -5.1728,-2.831752 h 4.18118 l -2.08548,-6.0724213 z" /></g></g></svg>