<?xml version="1.0" encoding="UTF-8" standalone="no"?>
<!-- Generator: Adobe Illustrator 16.0.0, SVG Export Plug-In . SVG Version: 6.00 Build 0)  -->

<svg
   xmlns:dc="http://purl.org/dc/elements/1.1/"
   xmlns:cc="http://creativecommons.org/ns#"
   xmlns:rdf="http://www.w3.org/1999/02/22-rdf-syntax-ns#"
   xmlns:svg="http://www.w3.org/2000/svg"
   xmlns="http://www.w3.org/2000/svg"
   xmlns:sodipodi="http://sodipodi.sourceforge.net/DTD/sodipodi-0.dtd"
   xmlns:inkscape="http://www.inkscape.org/namespaces/inkscape"
   version="1.1"
   id="Layer_1"
   x="0px"
   y="0px"
   width="64px"
   height="64px"
   viewBox="0 0 64 64"
   enable-background="new 0 0 64 64"
   xml:space="preserve"
   sodipodi:docname="qgis-icon-green64.svg"
   inkscape:version="0.92.1 r15371"><metadata
     id="metadata13"><rdf:RDF><cc:Work
         rdf:about=""><dc:format>image/svg+xml</dc:format><dc:type
           rdf:resource="http://purl.org/dc/dcmitype/StillImage" /></cc:Work></rdf:RDF></metadata><defs
     id="defs11" /><sodipodi:namedview
     pagecolor="#ffffff"
     bordercolor="#666666"
     borderopacity="1"
     objecttolerance="10"
     gridtolerance="10"
     guidetolerance="10"
     inkscape:pageopacity="0"
     inkscape:pageshadow="2"
     inkscape:window-width="1920"
     inkscape:window-height="1051"
     id="namedview9"
     showgrid="false"
     inkscape:zoom="13.28125"
     inkscape:cx="32"
     inkscape:cy="32"
     inkscape:window-x="-9"
     inkscape:window-y="-9"
     inkscape:window-maximized="1"
     inkscape:current-layer="Layer_1" /><polygon
     fill="#589632"
     points="34.613,35.471 43.81,35.438 35.836,27.625 26.613,27.625 26.613,36.695 34.613,44.593 "
     id="polygon2" /><polygon
     fill="#589632"
     points="63.613,54.844 47.819,39.367 38.613,39.354 38.613,48.688 53.553,63.625 63.613,63.625 "
     id="polygon4" /><path
     fill="#589632"
     d="M35.553,50.859c-1.359,0.313-1.988,0.312-3.446,0.312c-10.429,0-19.299-8.575-19.299-19.696  c0-11.12,8.772-19.506,19.299-19.506s18.911,8.387,18.911,19.506c0,1.809-0.227,3.548-0.644,5.198l9.653,9.651  c2.488-4.36,3.881-9.43,3.881-14.922c0-17.138-13.678-29.971-31.997-29.971C13.677,1.431,0,14.179,0,31.401  c0,17.306,13.677,30.308,31.912,30.308c4.708,0,8.394-0.586,12.334-2.161L35.553,50.859z"
     id="path6" /><text
     xml:space="preserve"
     style="font-style:normal;font-weight:normal;font-size:5.02170372px;line-height:0%;font-family:sans-serif;letter-spacing:0px;word-spacing:0px;fill:#ffffff;fill-opacity:1;stroke:none;stroke-width:1px;stroke-linecap:butt;stroke-linejoin:miter;stroke-opacity:1"
     x="60.095116"
     y="3.983115"
     id="text4155"
     transform="rotate(45.232179)"><tspan
       sodipodi:role="line"
       id="tspan4157"
       x="60.095116"
       y="3.983115"
       style="font-style:normal;font-variant:normal;font-weight:bold;font-stretch:normal;font-size:10.49952507px;line-height:1.25;font-family:sans-serif;-inkscape-font-specification:'sans-serif Bold';letter-spacing:2.62488127px;fill:#ffffff;fill-opacity:1;stroke-width:1px">ITA</tspan></text>
</svg>