<?xml version="1.0" encoding="UTF-8" standalone="no"?>
<svg
   xmlns:dc="http://purl.org/dc/elements/1.1/"
   xmlns:cc="http://creativecommons.org/ns#"
   xmlns:rdf="http://www.w3.org/1999/02/22-rdf-syntax-ns#"
   xmlns:svg="http://www.w3.org/2000/svg"
   xmlns="http://www.w3.org/2000/svg"
   xml:space="preserve"
   enable-background="new 0 0 64 64"
   viewBox="0 0 64 64"
   height="64px"
   width="64px"
   y="0px"
   x="0px"
   id="Layer_1"
   version="1.1"><metadata
     id="metadata3857"><rdf:RDF><cc:Work
         rdf:about=""><dc:format>image/svg+xml</dc:format><dc:type
           rdf:resource="http://purl.org/dc/dcmitype/StillImage" /><dc:title></dc:title></cc:Work></rdf:RDF></metadata><defs
     id="defs3855" /><linearGradient
     gradientTransform="matrix(1 0 0 -1 -300.5195 -156.5547)"
     y2="-159.8998"
     x2="350.8956"
     y1="-221.0186"
     x1="351.8252"
     gradientUnits="userSpaceOnUse"
     id="SVGID_1_"><stop
       id="stop3834"
       style="stop-color:#589632"
       offset="0" /><stop
       id="stop3836"
       style="stop-color:#93B023"
       offset="1" /></linearGradient><linearGradient
     gradientTransform="matrix(1 0 0 -1 -300.5195 -156.5547)"
     y2="-159.7241"
     x2="332.044"
     y1="-221.1631"
     x1="332.9785"
     gradientUnits="userSpaceOnUse"
     id="SVGID_2_"><stop
       id="stop3843"
       style="stop-color:#589632"
       offset="0" /><stop
       id="stop3845"
       style="stop-color:#93B023"
       offset="1" /></linearGradient><path
     fill="url(#SVGID_2_)"
     id="path3848"
     d="M35.553,50.859c-1.359,0.313-1.988,0.312-3.446,0.312c-10.429,0-19.299-8.575-19.299-19.696  c0-11.12,8.772-19.506,19.299-19.506s18.911,8.387,18.911,19.506c0,1.809-0.227,3.548-0.644,5.198l9.653,9.651  c2.488-4.36,3.881-9.43,3.881-14.922c0-17.138-13.678-29.971-31.997-29.971C13.677,1.431,0,14.179,0,31.401  c0,17.306,13.677,30.308,31.912,30.308c4.708,0,8.394-0.586,12.334-2.161L35.553,50.859z" /><g
     style="stroke-width:1.9940486"
     transform="matrix(0.5014923,0,0,0.5014923,-0.007716,0.23098293)"
     id="g3796"><polygon
       transform="matrix(0.83446006,0,0,0.83446006,-93.781971,-80.557518)"
       style="fill:#009246;fill-opacity:1;stroke-width:2.38962722"
       id="polygon3"
       points="195,202.37 195,180 216.513,180 198.306,162 176,162 176,183.433 " /><polygon
       transform="matrix(0.83446006,0,0,0.83446006,-93.781971,-80.557518)"
       style="fill:#ce2b37;fill-opacity:1;stroke-width:2.38962722"
       id="polygon31"
       points="264,248 264,226.946 225.617,189 204,189 204,211.34 240.782,248 " /><polygon
       transform="matrix(0.83446006,0,0,0.83446006,-93.781971,-80.557518)"
       style="fill:#f1f2f1;fill-opacity:1;stroke-width:2.38962722"
       id="polygon33"
       points="204,211.34 204,189 225.617,189 216.513,180 195,180 195,202.37 " /><path
       style="fill:#ffffff;fill-opacity:0.17254902;stroke-width:1.9940486"
       id="polygon4174"
       d="m 53.083,54.625 73.43249,71.76356 V 108.81927 L 94.486566,77.155422 86.890039,69.645282 71.697,54.625 Z" /><g
       id="text4155"
       style="font-style:normal;font-weight:normal;font-size:10.01352119px;line-height:0%;font-family:sans-serif;letter-spacing:0px;word-spacing:0px;fill:#ffffff;fill-opacity:1;stroke:none;stroke-width:1.9940486px;stroke-linecap:butt;stroke-linejoin:miter;stroke-opacity:1"
       transform="rotate(45.23218)"
       aria-label="ITA"><path
         id="path4495"
         style="font-style:normal;font-variant:normal;font-weight:bold;font-stretch:normal;font-size:20.93656349px;line-height:1.25;font-family:sans-serif;-inkscape-font-specification:'sans-serif Bold';letter-spacing:5.23414087px;fill:#ffffff;fill-opacity:1;stroke-width:1.9940486px"
         d="m 121.43875,-7.6557389 h 3.93583 V 7.6070976 h -3.93583 z" /><path
         id="path4497"
         style="font-style:normal;font-variant:normal;font-weight:bold;font-stretch:normal;font-size:20.93656349px;line-height:1.25;font-family:sans-serif;-inkscape-font-specification:'sans-serif Bold';letter-spacing:5.23414087px;fill:#ffffff;fill-opacity:1;stroke-width:1.9940486px"
         d="m 132.66353,-7.6557389 h 14.06675 v 2.974873 h -5.06035 V 7.6070976 H 137.7341 V -4.6808659 h -5.07057 z" /><path
         id="path4499"
         style="font-style:normal;font-variant:normal;font-weight:bold;font-stretch:normal;font-size:20.93656349px;line-height:1.25;font-family:sans-serif;-inkscape-font-specification:'sans-serif Bold';letter-spacing:5.23414087px;fill:#ffffff;fill-opacity:1;stroke-width:1.9940486px"
         d="m 161.61487,4.8264603 h -6.15421 l -0.97117,2.7806373 h -3.95628 l 5.65328,-15.2628365 h 4.69233 l 5.65328,15.2628365 h -3.95627 z m -5.1728,-2.831752 h 4.18118 l -2.08548,-6.0724213 z" /></g></g></svg>