<?xml version="1.0" encoding="UTF-8" standalone="no"?>
<!-- Generator: Adobe Illustrator 16.0.0, SVG Export Plug-In . SVG Version: 6.00 Build 0)  -->

<svg
   xmlns:dc="http://purl.org/dc/elements/1.1/"
   xmlns:cc="http://creativecommons.org/ns#"
   xmlns:rdf="http://www.w3.org/1999/02/22-rdf-syntax-ns#"
   xmlns:svg="http://www.w3.org/2000/svg"
   xmlns="http://www.w3.org/2000/svg"
   xmlns:sodipodi="http://sodipodi.sourceforge.net/DTD/sodipodi-0.dtd"
   xmlns:inkscape="http://www.inkscape.org/namespaces/inkscape"
   version="1.1"
   id="Layer_1"
   x="0px"
   y="0px"
   width="32px"
   height="32px"
   viewBox="0 0 32 32"
   enable-background="new 0 0 32 32"
   xml:space="preserve"
   sodipodi:docname="qgis-icon-black32.svg"
   inkscape:version="0.92.1 r15371"><metadata
     id="metadata13"><rdf:RDF><cc:Work
         rdf:about=""><dc:format>image/svg+xml</dc:format><dc:type
           rdf:resource="http://purl.org/dc/dcmitype/StillImage" /></cc:Work></rdf:RDF></metadata><defs
     id="defs11" /><sodipodi:namedview
     pagecolor="#ffffff"
     bordercolor="#666666"
     borderopacity="1"
     objecttolerance="10"
     gridtolerance="10"
     guidetolerance="10"
     inkscape:pageopacity="0"
     inkscape:pageshadow="2"
     inkscape:window-width="1920"
     inkscape:window-height="1051"
     id="namedview9"
     showgrid="false"
     inkscape:zoom="26.5625"
     inkscape:cx="17.137442"
     inkscape:cy="14.422231"
     inkscape:window-x="-9"
     inkscape:window-y="-9"
     inkscape:window-maximized="1"
     inkscape:current-layer="Layer_1" /><path
     d="M18,25.185c-0.682,0.157-1.17,0.195-1.901,0.195c-5.229,0-9.677-4.3-9.677-9.876c0-5.576,4.399-9.781,9.677-9.781  s9.482,4.205,9.482,9.781c0,0.907-0.155,1.961-0.364,2.788L30.1,22.95c1.248-2.187,1.946-4.729,1.946-7.482  c0-8.594-6.858-15.028-16.044-15.028C6.858,0.439,0,6.831,0,15.467c0,8.678,6.858,15.197,16.001,15.197c2.361,0,4.224-0.3,6.2-1.09  L18,25.185z"
     id="path6" /><polygon
     points="195,202.37 195,180 216.513,180 198.306,162 176,162 176,183.433 "
     id="polygon3"
     style="fill:#000000;fill-opacity:1;stroke-width:4.88754082"
     transform="matrix(0.20460187,0,0,0.20460187,-22.396929,-19.520503)" /><polygon
     points="264,248 264,226.946 225.617,189 204,189 204,211.34 240.782,248 "
     id="polygon31"
     style="fill:#000000;fill-opacity:1;stroke-width:4.88754082"
     transform="matrix(0.20460187,0,0,0.20460187,-22.396929,-19.520503)" /><text
     xml:space="preserve"
     style="font-style:normal;font-weight:normal;font-size:2.45522261px;line-height:0%;font-family:sans-serif;letter-spacing:0px;word-spacing:0px;fill:#f3f4f3;fill-opacity:1;stroke:none;stroke-width:1px;stroke-linecap:butt;stroke-linejoin:miter;stroke-opacity:1"
     x="29.889555"
     y="1.6039535"
     id="text4155"
     transform="rotate(45.232181)"><tspan
       sodipodi:role="line"
       id="tspan4157"
       x="29.889555"
       y="1.6039535"
       style="font-style:normal;font-variant:normal;font-weight:bold;font-stretch:normal;font-size:5.13345146px;line-height:1.25;font-family:sans-serif;-inkscape-font-specification:'sans-serif Bold';letter-spacing:1.28336287px;fill:#f3f4f3;fill-opacity:1;stroke-width:1px">ITA</tspan></text>
</svg>