<?xml version="1.0" encoding="UTF-8" standalone="no"?>
<svg
   xmlns:dc="http://purl.org/dc/elements/1.1/"
   xmlns:cc="http://creativecommons.org/ns#"
   xmlns:rdf="http://www.w3.org/1999/02/22-rdf-syntax-ns#"
   xmlns:svg="http://www.w3.org/2000/svg"
   xmlns="http://www.w3.org/2000/svg"
   xml:space="preserve"
   enable-background="new 0 0 128 128"
   viewBox="0 0 128 128"
   height="128px"
   width="128px"
   y="0px"
   x="0px"
   id="Layer_1"
   version="1.1"><metadata
     id="metadata13"><rdf:RDF><cc:Work
         rdf:about=""><dc:format>image/svg+xml</dc:format><dc:type
           rdf:resource="http://purl.org/dc/dcmitype/StillImage" /><dc:title></dc:title></cc:Work></rdf:RDF></metadata><defs
     id="defs11" /><polygon
     id="polygon2"
     points="68.613,69.625 86.891,69.625 71.697,54.625 52.613,54.625 52.613,72.746 68.613,88.548 "
     fill="#589632" /><polygon
     id="polygon4"
     points="126.613,109.057 94.488,77.625 76.613,77.625 76.613,96.033 107.143,126.625 126.613,126.625 "
     fill="#589632" /><path
     id="path6"
     d="M68.923,101.552c-1.165,0.242-1.769,0.157-4.685,0.157c-20.866,0-38.612-17.158-38.612-39.406  c0-22.248,17.551-39.027,38.612-39.027s37.833,16.78,37.833,39.027c0,3.619-0.451,7.099-1.284,10.398L120.1,92.012  c4.979-8.726,7.765-18.869,7.765-29.857c0-34.289-27.363-59.963-64.016-59.963C27.363,2.191,0,27.696,0,62.154  c0,34.625,27.363,60.638,63.848,60.638c9.417,0,16.069-1.469,23.042-3.761L68.923,101.552z"
     fill="#589632" /><g
     id="text4155"
     style="font-style:normal;font-weight:normal;font-size:10.04628658px;line-height:0%;font-family:sans-serif;letter-spacing:0px;word-spacing:0px;fill:#ffffff;fill-opacity:1;stroke:none;stroke-width:1px;stroke-linecap:butt;stroke-linejoin:miter;stroke-opacity:1"
     transform="rotate(45.23218)"
     aria-label="ITA"><path
       id="path4486"
       style="font-style:normal;font-variant:normal;font-weight:bold;font-stretch:normal;font-size:21.00506973px;line-height:1.25;font-family:sans-serif;-inkscape-font-specification:'sans-serif Bold';letter-spacing:5.25126743px;fill:#ffffff;fill-opacity:1;stroke-width:1px"
       d="m 121.25575,-7.349564 h 3.94871 V 7.9632139 h -3.94871 z" /><path
       id="path4488"
       style="font-style:normal;font-variant:normal;font-weight:bold;font-stretch:normal;font-size:21.00506973px;line-height:1.25;font-family:sans-serif;-inkscape-font-specification:'sans-serif Bold';letter-spacing:5.25126743px;fill:#ffffff;fill-opacity:1;stroke-width:1px"
       d="m 132.51726,-7.349564 h 14.11278 v 2.9846071 h -5.07691 V 7.9632139 h -3.94871 V -4.3649569 h -5.08716 z" /><path
       id="path4490"
       style="font-style:normal;font-variant:normal;font-weight:bold;font-stretch:normal;font-size:21.00506973px;line-height:1.25;font-family:sans-serif;-inkscape-font-specification:'sans-serif Bold';letter-spacing:5.25126743px;fill:#ffffff;fill-opacity:1;stroke-width:1px"
       d="m 161.56333,5.1734781 h -6.17434 l -0.97436,2.7897358 h -3.96922 l 5.67178,-15.3127779 h 4.70768 l 5.67178,15.3127779 h -3.96922 z M 156.3736,2.3324604 h 4.19486 l -2.0923,-6.0922908 z" /></g></svg>