<?xml version="1.0" encoding="UTF-8" standalone="no"?>
<svg
   xmlns:dc="http://purl.org/dc/elements/1.1/"
   xmlns:cc="http://creativecommons.org/ns#"
   xmlns:rdf="http://www.w3.org/1999/02/22-rdf-syntax-ns#"
   xmlns:svg="http://www.w3.org/2000/svg"
   xmlns="http://www.w3.org/2000/svg"
   xml:space="preserve"
   enable-background="new 0 0 32 32"
   viewBox="0 0 32 32"
   height="32px"
   width="32px"
   y="0px"
   x="0px"
   id="Layer_1"
   version="1.1"><metadata
     id="metadata13"><rdf:RDF><cc:Work
         rdf:about=""><dc:format>image/svg+xml</dc:format><dc:type
           rdf:resource="http://purl.org/dc/dcmitype/StillImage" /><dc:title></dc:title></cc:Work></rdf:RDF></metadata><defs
     id="defs11" /><path
     style="fill:#ffffff"
     id="path6"
     d="M18,25.185c-0.682,0.157-1.17,0.195-1.901,0.195c-5.229,0-9.677-4.3-9.677-9.876  c0-5.576,4.399-9.781,9.677-9.781s9.482,4.205,9.482,9.781c0,0.907-0.155,1.961-0.364,2.788L30.1,22.95  c1.248-2.187,1.946-4.729,1.946-7.482c0-8.594-6.858-15.028-16.044-15.028C6.858,0.439,0,6.831,0,15.467  c0,8.678,6.858,15.197,16.001,15.197c2.361,0,4.224-0.3,6.2-1.09L18,25.185z"
     fill="#FFFFFF" /><polygon
     transform="matrix(0.20460187,0,0,0.20460187,-22.396929,-19.520264)"
     style="fill:#ffffff;fill-opacity:1;stroke-width:4.88754082"
     id="polygon3"
     points="216.513,180 198.306,162 176,162 176,183.433 195,202.37 195,180 " /><polygon
     transform="matrix(0.20460187,0,0,0.20460187,-22.396929,-19.520264)"
     style="fill:#ffffff;fill-opacity:1;stroke-width:4.88754082"
     id="polygon31"
     points="225.617,189 204,189 204,211.34 240.782,248 264,248 264,226.946 " /><g
     id="text4155"
     style="font-style:normal;font-weight:normal;font-size:2.45522261px;line-height:0%;font-family:sans-serif;letter-spacing:0px;word-spacing:0px;fill:#000000;fill-opacity:1;stroke:none;stroke-width:1px;stroke-linecap:butt;stroke-linejoin:miter;stroke-opacity:1"
     transform="rotate(45.232181)"
     aria-label="ITA"><path
       id="path4486"
       style="font-style:normal;font-variant:normal;font-weight:bold;font-stretch:normal;font-size:5.13345146px;line-height:1.25;font-family:sans-serif;-inkscape-font-specification:'sans-serif Bold';letter-spacing:1.28336287px;fill:#000000;fill-opacity:1;stroke-width:1px"
       d="m 30.36096,-2.1381823 h 0.965028 V 1.6041238 H 30.36096 Z" /><path
       id="path4488"
       style="font-style:normal;font-variant:normal;font-weight:bold;font-stretch:normal;font-size:5.13345146px;line-height:1.25;font-family:sans-serif;-inkscape-font-specification:'sans-serif Bold';letter-spacing:1.28336287px;fill:#000000;fill-opacity:1;stroke-width:1px"
       d="m 33.113171,-2.1381823 h 3.449038 V -1.408771 H 35.321458 V 1.6041238 H 34.356429 V -1.408771 h -1.243258 z" /><path
       id="path4490"
       style="font-style:normal;font-variant:normal;font-weight:bold;font-stretch:normal;font-size:5.13345146px;line-height:1.25;font-family:sans-serif;-inkscape-font-specification:'sans-serif Bold';letter-spacing:1.28336287px;fill:#000000;fill-opacity:1;stroke-width:1px"
       d="M 40.211772,0.92233731 H 38.702818 L 38.464694,1.6041238 h -0.970042 l 1.386132,-3.7423061 h 1.150515 l 1.386132,3.7423061 H 40.447389 Z M 38.943448,0.22801795 h 1.025187 l -0.51134,-1.48890145 z" /></g></svg>