<?xml version="1.0" encoding="UTF-8" standalone="no"?>
<!-- Generator: Adobe Illustrator 16.0.0, SVG Export Plug-In . SVG Version: 6.00 Build 0)  -->

<svg
   xmlns:dc="http://purl.org/dc/elements/1.1/"
   xmlns:cc="http://creativecommons.org/ns#"
   xmlns:rdf="http://www.w3.org/1999/02/22-rdf-syntax-ns#"
   xmlns:svg="http://www.w3.org/2000/svg"
   xmlns="http://www.w3.org/2000/svg"
   xmlns:sodipodi="http://sodipodi.sourceforge.net/DTD/sodipodi-0.dtd"
   xmlns:inkscape="http://www.inkscape.org/namespaces/inkscape"
   version="1.1"
   id="Layer_1"
   x="0px"
   y="0px"
   width="32px"
   height="32px"
   viewBox="0 0 32 32"
   enable-background="new 0 0 32 32"
   xml:space="preserve"
   sodipodi:docname="qgis-icon32.svg"
   inkscape:version="0.92.1 r15371"><metadata
     id="metadata27"><rdf:RDF><cc:Work
         rdf:about=""><dc:format>image/svg+xml</dc:format><dc:type
           rdf:resource="http://purl.org/dc/dcmitype/StillImage" /></cc:Work></rdf:RDF></metadata><defs
     id="defs25" /><sodipodi:namedview
     pagecolor="#ffffff"
     bordercolor="#666666"
     borderopacity="1"
     objecttolerance="10"
     gridtolerance="10"
     guidetolerance="10"
     inkscape:pageopacity="0"
     inkscape:pageshadow="2"
     inkscape:window-width="1920"
     inkscape:window-height="1051"
     id="namedview23"
     showgrid="false"
     inkscape:zoom="26.5625"
     inkscape:cx="16"
     inkscape:cy="16"
     inkscape:window-x="-9"
     inkscape:window-y="-9"
     inkscape:window-maximized="1"
     inkscape:current-layer="Layer_1" /><linearGradient
     id="SVGID_1_"
     gradientUnits="userSpaceOnUse"
     x1="25.7119"
     y1="32.0371"
     x2="25.2525"
     y2="1.8349"><stop
       offset="0"
       style="stop-color:#589632"
       id="stop4" /><stop
       offset="1"
       style="stop-color:#93B023"
       id="stop6" /></linearGradient><linearGradient
     id="SVGID_2_"
     gradientUnits="userSpaceOnUse"
     x1="16.2764"
     y1="32.1177"
     x2="15.8078"
     y2="1.3113"><stop
       offset="0"
       style="stop-color:#589632"
       id="stop13" /><stop
       offset="1"
       style="stop-color:#93B023"
       id="stop15" /></linearGradient><path
     fill="url(#SVGID_2_)"
     d="M18,25.185c-0.682,0.157-1.17,0.195-1.901,0.195c-5.229,0-9.677-4.3-9.677-9.876  c0-5.576,4.399-9.781,9.677-9.781s9.482,4.205,9.482,9.781c0,0.907-0.155,1.961-0.364,2.788L30.1,22.95  c1.248-2.187,1.946-4.729,1.946-7.482c0-8.594-6.858-15.028-16.044-15.028C6.858,0.439,0,6.831,0,15.467  c0,8.678,6.858,15.197,16.001,15.197c2.361,0,4.224-0.3,6.2-1.09L18,25.185z"
     id="path18" /><g
     id="g3796"
     transform="matrix(0.24519073,0,0,0.24519073,0.59754,0.2314563)"
     style="stroke-width:4.07845783"><polygon
       points="176,162 176,183.433 195,202.37 195,180 216.513,180 198.306,162 "
       id="polygon3"
       style="fill:#009246;fill-opacity:1;stroke-width:4.88754082"
       transform="matrix(0.83446006,0,0,0.83446006,-93.781971,-80.557518)" /><polygon
       points="204,211.34 240.782,248 264,248 264,226.946 225.617,189 204,189 "
       id="polygon31"
       style="fill:#ce2b37;fill-opacity:1;stroke-width:4.88754082"
       transform="matrix(0.83446006,0,0,0.83446006,-93.781971,-80.557518)" /><polygon
       points="195,180 195,202.37 204,211.34 204,189 225.617,189 216.513,180 "
       id="polygon33"
       style="fill:#f1f2f1;fill-opacity:1;stroke-width:4.88754082"
       transform="matrix(0.83446006,0,0,0.83446006,-93.781971,-80.557518)" /><path
       d="m 53.083,54.625 73.43249,71.76356 V 108.81927 L 94.486566,77.155422 86.890039,69.645282 71.697,54.625 Z"
       id="polygon4174"
       style="fill:#ffffff;fill-opacity:0.17254902;stroke-width:4.07845783"
       inkscape:connector-curvature="0"
       sodipodi:nodetypes="ccccccc" /><text
       xml:space="preserve"
       style="font-style:normal;font-weight:normal;font-size:10.01352119px;line-height:0%;font-family:sans-serif;letter-spacing:0px;word-spacing:0px;fill:#ffffff;fill-opacity:1;stroke:none;stroke-width:4.07845783px;stroke-linecap:butt;stroke-linejoin:miter;stroke-opacity:1;"
       x="119.51684"
       y="7.6070976"
       id="text4155"
       transform="rotate(45.23218)"><tspan
         sodipodi:role="line"
         id="tspan4157"
         x="119.51684"
         y="7.6070976"
         style="font-style:normal;font-variant:normal;font-weight:bold;font-stretch:normal;font-size:20.93656349px;line-height:1.25;font-family:sans-serif;-inkscape-font-specification:'sans-serif Bold';letter-spacing:5.23414087px;fill:#ffffff;fill-opacity:1;stroke-width:4.07845783px;">ITA</tspan></text>
</g></svg>