<?xml version="1.0" encoding="UTF-8" standalone="no"?>
<svg
   xmlns:dc="http://purl.org/dc/elements/1.1/"
   xmlns:cc="http://creativecommons.org/ns#"
   xmlns:rdf="http://www.w3.org/1999/02/22-rdf-syntax-ns#"
   xmlns:svg="http://www.w3.org/2000/svg"
   xmlns="http://www.w3.org/2000/svg"
   xml:space="preserve"
   enable-background="new 0 0 32 32"
   viewBox="0 0 32 32"
   height="32px"
   width="32px"
   y="0px"
   x="0px"
   id="Layer_1"
   version="1.1"><metadata
     id="metadata27"><rdf:RDF><cc:Work
         rdf:about=""><dc:format>image/svg+xml</dc:format><dc:type
           rdf:resource="http://purl.org/dc/dcmitype/StillImage" /><dc:title></dc:title></cc:Work></rdf:RDF></metadata><defs
     id="defs25" /><linearGradient
     y2="1.8349"
     x2="25.2525"
     y1="32.0371"
     x1="25.7119"
     gradientUnits="userSpaceOnUse"
     id="SVGID_1_"><stop
       id="stop4"
       style="stop-color:#589632"
       offset="0" /><stop
       id="stop6"
       style="stop-color:#93B023"
       offset="1" /></linearGradient><linearGradient
     y2="1.3113"
     x2="15.8078"
     y1="32.1177"
     x1="16.2764"
     gradientUnits="userSpaceOnUse"
     id="SVGID_2_"><stop
       id="stop13"
       style="stop-color:#589632"
       offset="0" /><stop
       id="stop15"
       style="stop-color:#93B023"
       offset="1" /></linearGradient><path
     id="path18"
     d="M18,25.185c-0.682,0.157-1.17,0.195-1.901,0.195c-5.229,0-9.677-4.3-9.677-9.876  c0-5.576,4.399-9.781,9.677-9.781s9.482,4.205,9.482,9.781c0,0.907-0.155,1.961-0.364,2.788L30.1,22.95  c1.248-2.187,1.946-4.729,1.946-7.482c0-8.594-6.858-15.028-16.044-15.028C6.858,0.439,0,6.831,0,15.467  c0,8.678,6.858,15.197,16.001,15.197c2.361,0,4.224-0.3,6.2-1.09L18,25.185z"
     fill="url(#SVGID_2_)" /><g
     style="stroke-width:4.07845783"
     transform="matrix(0.24519073,0,0,0.24519073,0.59754,0.2314563)"
     id="g3796"><polygon
       transform="matrix(0.83446006,0,0,0.83446006,-93.781971,-80.557518)"
       style="fill:#009246;fill-opacity:1;stroke-width:4.88754082"
       id="polygon3"
       points="176,162 176,183.433 195,202.37 195,180 216.513,180 198.306,162 " /><polygon
       transform="matrix(0.83446006,0,0,0.83446006,-93.781971,-80.557518)"
       style="fill:#ce2b37;fill-opacity:1;stroke-width:4.88754082"
       id="polygon31"
       points="204,211.34 240.782,248 264,248 264,226.946 225.617,189 204,189 " /><polygon
       transform="matrix(0.83446006,0,0,0.83446006,-93.781971,-80.557518)"
       style="fill:#f1f2f1;fill-opacity:1;stroke-width:4.88754082"
       id="polygon33"
       points="195,180 195,202.37 204,211.34 204,189 225.617,189 216.513,180 " /><path
       style="fill:#ffffff;fill-opacity:0.17254902;stroke-width:4.07845783"
       id="polygon4174"
       d="m 53.083,54.625 73.43249,71.76356 V 108.81927 L 94.486566,77.155422 86.890039,69.645282 71.697,54.625 Z" /><g
       id="text4155"
       style="font-style:normal;font-weight:normal;font-size:10.01352119px;line-height:0%;font-family:sans-serif;letter-spacing:0px;word-spacing:0px;fill:#ffffff;fill-opacity:1;stroke:none;stroke-width:4.07845783px;stroke-linecap:butt;stroke-linejoin:miter;stroke-opacity:1"
       transform="rotate(45.23218)"
       aria-label="ITA"><path
         id="path4495"
         style="font-style:normal;font-variant:normal;font-weight:bold;font-stretch:normal;font-size:20.93656349px;line-height:1.25;font-family:sans-serif;-inkscape-font-specification:'sans-serif Bold';letter-spacing:5.23414087px;fill:#ffffff;fill-opacity:1;stroke-width:4.07845783px"
         d="m 121.43875,-7.6557389 h 3.93583 V 7.6070976 h -3.93583 z" /><path
         id="path4497"
         style="font-style:normal;font-variant:normal;font-weight:bold;font-stretch:normal;font-size:20.93656349px;line-height:1.25;font-family:sans-serif;-inkscape-font-specification:'sans-serif Bold';letter-spacing:5.23414087px;fill:#ffffff;fill-opacity:1;stroke-width:4.07845783px"
         d="m 132.66353,-7.6557389 h 14.06675 v 2.974873 h -5.06035 V 7.6070976 H 137.7341 V -4.6808659 h -5.07057 z" /><path
         id="path4499"
         style="font-style:normal;font-variant:normal;font-weight:bold;font-stretch:normal;font-size:20.93656349px;line-height:1.25;font-family:sans-serif;-inkscape-font-specification:'sans-serif Bold';letter-spacing:5.23414087px;fill:#ffffff;fill-opacity:1;stroke-width:4.07845783px"
         d="m 161.61487,4.8264603 h -6.15421 l -0.97117,2.7806373 h -3.95628 l 5.65328,-15.2628365 h 4.69233 l 5.65328,15.2628365 h -3.95627 z m -5.1728,-2.831752 h 4.18118 l -2.08548,-6.0724213 z" /></g></g></svg>