<?xml version="1.0" encoding="UTF-8" standalone="no"?>
<!-- Generator: Adobe Illustrator 16.0.0, SVG Export Plug-In . SVG Version: 6.00 Build 0)  -->

<svg
   xmlns:dc="http://purl.org/dc/elements/1.1/"
   xmlns:cc="http://creativecommons.org/ns#"
   xmlns:rdf="http://www.w3.org/1999/02/22-rdf-syntax-ns#"
   xmlns:svg="http://www.w3.org/2000/svg"
   xmlns="http://www.w3.org/2000/svg"
   xmlns:sodipodi="http://sodipodi.sourceforge.net/DTD/sodipodi-0.dtd"
   xmlns:inkscape="http://www.inkscape.org/namespaces/inkscape"
   version="1.1"
   id="Layer_1"
   x="0px"
   y="0px"
   width="128px"
   height="128px"
   viewBox="0 0 128 128"
   enable-background="new 0 0 128 128"
   xml:space="preserve"
   sodipodi:docname="qgis-icon128.svg"
   inkscape:version="0.92.1 r15371"><metadata
     id="metadata88"><rdf:RDF><cc:Work
         rdf:about=""><dc:format>image/svg+xml</dc:format><dc:type
           rdf:resource="http://purl.org/dc/dcmitype/StillImage" /></cc:Work></rdf:RDF></metadata><defs
     id="defs86" /><sodipodi:namedview
     pagecolor="#ffffff"
     bordercolor="#666666"
     borderopacity="1"
     objecttolerance="10"
     gridtolerance="10"
     guidetolerance="10"
     inkscape:pageopacity="0"
     inkscape:pageshadow="2"
     inkscape:window-width="1920"
     inkscape:window-height="1051"
     id="namedview84"
     showgrid="false"
     inkscape:zoom="6.640625"
     inkscape:cx="64"
     inkscape:cy="64"
     inkscape:window-x="-9"
     inkscape:window-y="-9"
     inkscape:window-maximized="1"
     inkscape:current-layer="Layer_1" /><linearGradient
     id="SVGID_1_"
     gradientUnits="userSpaceOnUse"
     x1="402.5244"
     y1="-220.8706"
     x2="400.6479"
     y2="-97.5023"
     gradientTransform="matrix(1 0 0 -1 -300.5195 -92.5547)"><stop
       offset="0"
       style="stop-color:#589632"
       id="stop65" /><stop
       offset="1"
       style="stop-color:#93B023"
       id="stop67" /></linearGradient><linearGradient
     id="SVGID_2_"
     gradientUnits="userSpaceOnUse"
     x1="365.4619"
     y1="-221.1455"
     x2="363.5923"
     y2="-98.227"
     gradientTransform="matrix(1 0 0 -1 -300.5195 -92.5547)"><stop
       offset="0"
       style="stop-color:#589632"
       id="stop74" /><stop
       offset="1"
       style="stop-color:#93B023"
       id="stop76" /></linearGradient><path
     fill="url(#SVGID_2_)"
     d="M68.923,101.552c-1.165,0.242-1.769,0.157-4.685,0.157c-20.866,0-38.612-17.158-38.612-39.406  c0-22.248,17.551-39.027,38.612-39.027s37.833,16.78,37.833,39.027c0,3.619-0.451,7.099-1.284,10.398L120.1,92.012  c4.979-8.726,7.765-18.869,7.765-29.857c0-34.289-27.363-59.963-64.016-59.963C27.363,2.191,0,27.696,0,62.154  c0,34.625,27.363,60.638,63.848,60.638c9.417,0,16.069-1.469,23.042-3.761L68.923,101.552z"
     id="path79" /><g
     id="g3796"
     transform="matrix(1.0032721,0,0,1.0032721,-0.64369244,-0.17913294)"
     style="stroke-width:0.99673855"><polygon
       points="176,162 176,183.433 195,202.37 195,180 216.513,180 198.306,162 "
       id="polygon3"
       style="fill:#009246;fill-opacity:1;stroke-width:1.19447124"
       transform="matrix(0.83446006,0,0,0.83446006,-93.781971,-80.557518)" /><polygon
       points="204,211.34 240.782,248 264,248 264,226.946 225.617,189 204,189 "
       id="polygon31"
       style="fill:#ce2b37;fill-opacity:1;stroke-width:1.19447124"
       transform="matrix(0.83446006,0,0,0.83446006,-93.781971,-80.557518)" /><polygon
       points="195,180 195,202.37 204,211.34 204,189 225.617,189 216.513,180 "
       id="polygon33"
       style="fill:#f1f2f1;fill-opacity:1;stroke-width:1.19447124"
       transform="matrix(0.83446006,0,0,0.83446006,-93.781971,-80.557518)" /><path
       d="m 53.083,54.625 73.43249,71.76356 V 108.81927 L 94.486566,77.155422 86.890039,69.645282 71.697,54.625 Z"
       id="polygon4174"
       style="fill:#ffffff;fill-opacity:0.17254902;stroke-width:0.99673855"
       inkscape:connector-curvature="0"
       sodipodi:nodetypes="ccccccc" /><text
       xml:space="preserve"
       style="font-style:normal;font-weight:normal;font-size:10.01352119px;line-height:0%;font-family:sans-serif;letter-spacing:0px;word-spacing:0px;fill:#ffffff;fill-opacity:1;stroke:none;stroke-width:0.99673855px;stroke-linecap:butt;stroke-linejoin:miter;stroke-opacity:1;"
       x="119.51684"
       y="7.6070976"
       id="text4155"
       transform="rotate(45.23218)"><tspan
         sodipodi:role="line"
         id="tspan4157"
         x="119.51684"
         y="7.6070976"
         style="font-style:normal;font-variant:normal;font-weight:bold;font-stretch:normal;font-size:20.93656349px;line-height:1.25;font-family:sans-serif;-inkscape-font-specification:'sans-serif Bold';letter-spacing:5.23414087px;fill:#ffffff;fill-opacity:1;stroke-width:0.99673855px;">ITA</tspan></text>
</g></svg>