<?xml version="1.0" encoding="UTF-8" standalone="no"?>
<!-- Generator: Adobe Illustrator 16.0.0, SVG Export Plug-In . SVG Version: 6.00 Build 0)  -->

<svg
   xmlns:dc="http://purl.org/dc/elements/1.1/"
   xmlns:cc="http://creativecommons.org/ns#"
   xmlns:rdf="http://www.w3.org/1999/02/22-rdf-syntax-ns#"
   xmlns:svg="http://www.w3.org/2000/svg"
   xmlns="http://www.w3.org/2000/svg"
   xmlns:sodipodi="http://sodipodi.sourceforge.net/DTD/sodipodi-0.dtd"
   xmlns:inkscape="http://www.inkscape.org/namespaces/inkscape"
   version="1.1"
   id="Layer_1"
   x="0px"
   y="0px"
   width="64px"
   height="64px"
   viewBox="0 0 64 64"
   enable-background="new 0 0 64 64"
   xml:space="preserve"
   sodipodi:docname="qgis-icon64.svg"
   inkscape:version="0.92.1 r15371"><metadata
     id="metadata3857"><rdf:RDF><cc:Work
         rdf:about=""><dc:format>image/svg+xml</dc:format><dc:type
           rdf:resource="http://purl.org/dc/dcmitype/StillImage" /></cc:Work></rdf:RDF></metadata><defs
     id="defs3855" /><sodipodi:namedview
     pagecolor="#ffffff"
     bordercolor="#666666"
     borderopacity="1"
     objecttolerance="10"
     gridtolerance="10"
     guidetolerance="10"
     inkscape:pageopacity="0"
     inkscape:pageshadow="2"
     inkscape:window-width="1920"
     inkscape:window-height="1051"
     id="namedview3853"
     showgrid="false"
     inkscape:zoom="13.28125"
     inkscape:cx="17.054118"
     inkscape:cy="32"
     inkscape:window-x="-9"
     inkscape:window-y="-9"
     inkscape:window-maximized="1"
     inkscape:current-layer="Layer_1" /><linearGradient
     id="SVGID_1_"
     gradientUnits="userSpaceOnUse"
     x1="351.8252"
     y1="-221.0186"
     x2="350.8956"
     y2="-159.8998"
     gradientTransform="matrix(1 0 0 -1 -300.5195 -156.5547)"><stop
       offset="0"
       style="stop-color:#589632"
       id="stop3834" /><stop
       offset="1"
       style="stop-color:#93B023"
       id="stop3836" /></linearGradient><linearGradient
     id="SVGID_2_"
     gradientUnits="userSpaceOnUse"
     x1="332.9785"
     y1="-221.1631"
     x2="332.044"
     y2="-159.7241"
     gradientTransform="matrix(1 0 0 -1 -300.5195 -156.5547)"><stop
       offset="0"
       style="stop-color:#589632"
       id="stop3843" /><stop
       offset="1"
       style="stop-color:#93B023"
       id="stop3845" /></linearGradient><path
     d="M35.553,50.859c-1.359,0.313-1.988,0.312-3.446,0.312c-10.429,0-19.299-8.575-19.299-19.696  c0-11.12,8.772-19.506,19.299-19.506s18.911,8.387,18.911,19.506c0,1.809-0.227,3.548-0.644,5.198l9.653,9.651  c2.488-4.36,3.881-9.43,3.881-14.922c0-17.138-13.678-29.971-31.997-29.971C13.677,1.431,0,14.179,0,31.401  c0,17.306,13.677,30.308,31.912,30.308c4.708,0,8.394-0.586,12.334-2.161L35.553,50.859z"
     id="path3848"
     fill="url(#SVGID_2_)" /><g
     id="g3796"
     transform="matrix(0.5014923,0,0,0.5014923,-0.007716,0.23098293)"
     style="stroke-width:1.9940486"><polygon
       points="195,202.37 195,180 216.513,180 198.306,162 176,162 176,183.433 "
       id="polygon3"
       style="fill:#009246;fill-opacity:1;stroke-width:2.38962722"
       transform="matrix(0.83446006,0,0,0.83446006,-93.781971,-80.557518)" /><polygon
       points="264,248 264,226.946 225.617,189 204,189 204,211.34 240.782,248 "
       id="polygon31"
       style="fill:#ce2b37;fill-opacity:1;stroke-width:2.38962722"
       transform="matrix(0.83446006,0,0,0.83446006,-93.781971,-80.557518)" /><polygon
       points="204,211.34 204,189 225.617,189 216.513,180 195,180 195,202.37 "
       id="polygon33"
       style="fill:#f1f2f1;fill-opacity:1;stroke-width:2.38962722"
       transform="matrix(0.83446006,0,0,0.83446006,-93.781971,-80.557518)" /><path
       d="m 53.083,54.625 73.43249,71.76356 V 108.81927 L 94.486566,77.155422 86.890039,69.645282 71.697,54.625 Z"
       id="polygon4174"
       style="fill:#ffffff;fill-opacity:0.17254902;stroke-width:1.9940486"
       inkscape:connector-curvature="0"
       sodipodi:nodetypes="ccccccc" /><text
       xml:space="preserve"
       style="font-style:normal;font-weight:normal;font-size:10.01352119px;line-height:0%;font-family:sans-serif;letter-spacing:0px;word-spacing:0px;fill:#ffffff;fill-opacity:1;stroke:none;stroke-width:1.9940486px;stroke-linecap:butt;stroke-linejoin:miter;stroke-opacity:1;"
       x="119.51684"
       y="7.6070976"
       id="text4155"
       transform="rotate(45.23218)"><tspan
         sodipodi:role="line"
         id="tspan4157"
         x="119.51684"
         y="7.6070976"
         style="font-style:normal;font-variant:normal;font-weight:bold;font-stretch:normal;font-size:20.93656349px;line-height:1.25;font-family:sans-serif;-inkscape-font-specification:'sans-serif Bold';letter-spacing:5.23414087px;fill:#ffffff;fill-opacity:1;stroke-width:1.9940486px;">ITA</tspan></text>
</g></svg>