<?xml version="1.0" encoding="UTF-8" standalone="no"?>
<svg
   xmlns:dc="http://purl.org/dc/elements/1.1/"
   xmlns:cc="http://creativecommons.org/ns#"
   xmlns:rdf="http://www.w3.org/1999/02/22-rdf-syntax-ns#"
   xmlns:svg="http://www.w3.org/2000/svg"
   xmlns="http://www.w3.org/2000/svg"
   xml:space="preserve"
   enable-background="new 0 0 64 64"
   viewBox="0 0 64 64"
   height="64px"
   width="64px"
   y="0px"
   x="0px"
   id="Layer_1"
   version="1.1"><metadata
     id="metadata13"><rdf:RDF><cc:Work
         rdf:about=""><dc:format>image/svg+xml</dc:format><dc:type
           rdf:resource="http://purl.org/dc/dcmitype/StillImage" /><dc:title></dc:title></cc:Work></rdf:RDF></metadata><defs
     id="defs11" /><polygon
     id="polygon2"
     points="34.613,35.471 43.81,35.438 35.836,27.625 26.613,27.625 26.613,36.695 34.613,44.593 " /><polygon
     id="polygon4"
     points="63.613,54.844 47.819,39.367 38.613,39.354 38.613,48.688 53.553,63.625 63.613,63.625 " /><path
     id="path6"
     d="M35.553,50.859c-1.359,0.313-1.988,0.312-3.446,0.312c-10.429,0-19.299-8.575-19.299-19.696  c0-11.12,8.772-19.506,19.299-19.506s18.911,8.387,18.911,19.506c0,1.809-0.227,3.548-0.644,5.198l9.653,9.651  c2.488-4.36,3.881-9.43,3.881-14.922c0-17.138-13.678-29.971-31.997-29.971C13.677,1.431,0,14.179,0,31.401  c0,17.306,13.677,30.308,31.912,30.308c4.708,0,8.394-0.586,12.334-2.161L35.553,50.859z" /><g
     id="text4155"
     style="font-style:normal;font-weight:normal;font-size:5.02170372px;line-height:0%;font-family:sans-serif;letter-spacing:0px;word-spacing:0px;fill:#ffffff;fill-opacity:1;stroke:none;stroke-width:1px;stroke-linecap:butt;stroke-linejoin:miter;stroke-opacity:1"
     transform="rotate(45.232179)"
     aria-label="ITA"><path
       id="path4486"
       style="font-style:normal;font-variant:normal;font-weight:bold;font-stretch:normal;font-size:10.49952507px;line-height:1.25;font-family:sans-serif;-inkscape-font-specification:'sans-serif Bold';letter-spacing:2.62488127px;fill:#ffffff;fill-opacity:1;stroke-width:1px"
       d="m 61.058939,-3.6710801 h 1.973788 v 7.6541948 h -1.973788 z" /><path
       id="path4488"
       style="font-style:normal;font-variant:normal;font-weight:bold;font-stretch:normal;font-size:10.49952507px;line-height:1.25;font-family:sans-serif;-inkscape-font-specification:'sans-serif Bold';letter-spacing:2.62488127px;fill:#ffffff;fill-opacity:1;stroke-width:1px"
       d="m 66.688079,-3.6710801 h 7.054369 v 1.4918759 h -2.537727 v 6.1623189 h -1.973788 v -6.1623189 h -2.542854 z" /><path
       id="path4490"
       style="font-style:normal;font-variant:normal;font-weight:bold;font-stretch:normal;font-size:10.49952507px;line-height:1.25;font-family:sans-serif;-inkscape-font-specification:'sans-serif Bold';letter-spacing:2.62488127px;fill:#ffffff;fill-opacity:1;stroke-width:1px"
       d="m 81.206954,2.5886465 h -3.086286 l -0.487039,1.3944682 h -1.984041 l 2.835077,-7.6541948 h 2.353165 l 2.835077,7.6541948 H 81.688866 Z M 78.612833,1.1685448 h 2.096829 l -1.045851,-3.0452724 z" /></g></svg>