<?xml version="1.0" encoding="UTF-8" standalone="no"?>
<!-- Generator: Adobe Illustrator 16.0.0, SVG Export Plug-In . SVG Version: 6.00 Build 0)  -->

<svg
   xmlns:dc="http://purl.org/dc/elements/1.1/"
   xmlns:cc="http://creativecommons.org/ns#"
   xmlns:rdf="http://www.w3.org/1999/02/22-rdf-syntax-ns#"
   xmlns:svg="http://www.w3.org/2000/svg"
   xmlns="http://www.w3.org/2000/svg"
   xmlns:sodipodi="http://sodipodi.sourceforge.net/DTD/sodipodi-0.dtd"
   xmlns:inkscape="http://www.inkscape.org/namespaces/inkscape"
   version="1.1"
   id="Layer_1"
   x="0px"
   y="0px"
   width="160"
   height="160"
   viewBox="0 0 160 160"
   enable-background="new 0 0 722.569 346.291"
   xml:space="preserve"
   inkscape:version="0.92.2 (5c3e80d, 2017-08-06)"
   sodipodi:docname="qgis-logo3_ITA.svg"
   inkscape:export-filename="E:\Google Drive\QGIS_Graphics\Logo candidate 3.0 final files\qgis-logo_anita0.png"
   inkscape:export-xdpi="278"
   inkscape:export-ydpi="278"><metadata
     id="metadata46"><rdf:RDF><cc:Work
         rdf:about=""><dc:format>image/svg+xml</dc:format><dc:type
           rdf:resource="http://purl.org/dc/dcmitype/StillImage" /><dc:title /></cc:Work></rdf:RDF></metadata><defs
     id="defs44" /><sodipodi:namedview
     pagecolor="#ffffff"
     bordercolor="#666666"
     borderopacity="1"
     objecttolerance="10"
     gridtolerance="10"
     guidetolerance="10"
     inkscape:pageopacity="0"
     inkscape:pageshadow="2"
     inkscape:window-width="1366"
     inkscape:window-height="705"
     id="namedview42"
     showgrid="false"
     inkscape:zoom="0.9640625"
     inkscape:cx="-51.724863"
     inkscape:cy="77.785603"
     inkscape:window-x="-8"
     inkscape:window-y="-8"
     inkscape:window-maximized="1"
     inkscape:current-layer="Layer_1" /><linearGradient
     id="SVGID_1_"
     gradientUnits="userSpaceOnUse"
     x1="350.02249"
     y1="247.7832"
     x2="347.78201"
     y2="100.4837"><stop
       offset="0"
       style="stop-color:#589632"
       id="stop6" /><stop
       offset="1"
       style="stop-color:#93B023"
       id="stop8" /></linearGradient><linearGradient
     id="SVGID_2_"
     gradientUnits="userSpaceOnUse"
     x1="459.22171"
     y1="246.1226"
     x2="456.98129"
     y2="98.822403"><stop
       offset="0"
       style="stop-color:#589632"
       id="stop13" /><stop
       offset="1"
       style="stop-color:#93B023"
       id="stop15" /></linearGradient><linearGradient
     id="SVGID_3_"
     gradientUnits="userSpaceOnUse"
     x1="553.50677"
     y1="244.6875"
     x2="551.26642"
     y2="97.388199"><stop
       offset="0"
       style="stop-color:#589632"
       id="stop20" /><stop
       offset="1"
       style="stop-color:#93B023"
       id="stop22" /></linearGradient><linearGradient
     id="SVGID_4_"
     gradientUnits="userSpaceOnUse"
     x1="234.4702"
     y1="250.03419"
     x2="232.211"
     y2="101.4977"><stop
       offset="0"
       style="stop-color:#589632"
       id="stop27" /><stop
       offset="1"
       style="stop-color:#93B023"
       id="stop29" /></linearGradient><linearGradient
     id="SVGID_5_"
     gradientUnits="userSpaceOnUse"
     x1="188.7529"
     y1="250.2354"
     x2="186.5125"
     y2="102.9362"
     gradientTransform="translate(-107.65059,-91.09412)"><stop
       offset="0"
       style="stop-color:#589632"
       id="stop36" /><stop
       offset="1"
       style="stop-color:#93B023"
       id="stop38" /></linearGradient><flowRoot
     xml:space="preserve"
     id="flowRoot882"
     style="font-style:normal;font-variant:normal;font-weight:normal;font-stretch:normal;font-size:10.66666698px;line-height:125%;font-family:Trueno;-inkscape-font-specification:Trueno;letter-spacing:0px;word-spacing:0px;fill:#000000;fill-opacity:1;stroke:none;stroke-width:1px;stroke-linecap:butt;stroke-linejoin:miter;stroke-opacity:1"
     transform="translate(-310.23206,134.7245)"><flowRegion
       id="flowRegion884"><rect
         id="rect886"
         width="7.6565075"
         height="13.224876"
         x="66.124382"
         y="40.21682" /></flowRegion><flowPara
       id="flowPara888" /></flowRoot><flowRoot
     xml:space="preserve"
     id="flowRoot890"
     style="font-style:normal;font-variant:normal;font-weight:normal;font-stretch:normal;font-size:10.66666698px;line-height:125%;font-family:Trueno;-inkscape-font-specification:Trueno;letter-spacing:0px;word-spacing:0px;fill:#000000;fill-opacity:1;stroke:none;stroke-width:1px;stroke-linecap:butt;stroke-linejoin:miter;stroke-opacity:1"
     transform="translate(-310.23206,134.7245)"><flowRegion
       id="flowRegion892"><rect
         id="rect894"
         width="1.9895197e-013"
         height="15.313015"
         x="70.439873"
         y="38.128681" /></flowRegion><flowPara
       id="flowPara896" /></flowRoot><flowRoot
     xml:space="preserve"
     id="flowRoot900"
     style="font-style:normal;font-variant:normal;font-weight:normal;font-stretch:normal;font-size:10.66666698px;line-height:125%;font-family:Trueno;-inkscape-font-specification:Trueno;letter-spacing:0px;word-spacing:0px;fill:#000000;fill-opacity:1;stroke:none;stroke-width:1px;stroke-linecap:butt;stroke-linejoin:miter;stroke-opacity:1"
     transform="translate(-310.23206,134.7245)"><flowRegion
       id="flowRegion902"><rect
         id="rect904"
         width="0"
         height="12.250412"
         x="70.439873"
         y="25.321434" /></flowRegion><flowPara
       id="flowPara906" /></flowRoot><g
     id="g1005"
     transform="matrix(0.64736864,0,0,0.65787599,202.10374,37.871886)"><polygon
       transform="matrix(1.5447149,0,0,1.5200433,-478.48182,-196.03335)"
       id="polygon3-0"
       points="198.306,162 176,162 176,183.433 195,202.37 195,180 216.513,180 "
       style="fill:#ee7913;fill-opacity:1;stroke:none;stroke-width:0.12332619;stroke-miterlimit:4;stroke-dasharray:none;stroke-dashoffset:0" /><polygon
       transform="matrix(1.5447149,0,0,1.5200433,-478.48182,-196.03335)"
       id="polygon31-1"
       points="204,189 204,211.34 240.782,248 264,248 264,226.946 225.617,189 "
       style="fill:#93b023;fill-opacity:1;stroke:none;stroke-width:0.12332619;stroke-miterlimit:4;stroke-dasharray:none;stroke-dashoffset:0" /><polygon
       transform="matrix(1.5447149,0,0,1.5200433,-478.48182,-196.03335)"
       id="polygon33-3"
       points="216.513,180 195,180 195,202.37 204,211.34 204,189 225.617,189 "
       style="fill:#f0e64a;fill-opacity:1;stroke:none;stroke-width:0.12332619;stroke-miterlimit:4;stroke-dasharray:none;stroke-dashoffset:0" /><path
       sodipodi:nodetypes="ccccccc"
       inkscape:connector-curvature="0"
       style="fill:#008000;fill-opacity:0.17254902;stroke:none;stroke-width:0.18897635;stroke-miterlimit:4;stroke-dasharray:none;stroke-dashoffset:0"
       id="polygon4174-2"
       d="M -206.612,50.213665 -70.677086,180.93739 V 148.93335 L -129.96758,91.254834 -144.02993,77.574444 -172.1546,50.213665 Z" /></g><path
     style="fill:#009246;stroke:#4d4d4d;stroke-width:0.25;stroke-linecap:butt;stroke-linejoin:miter;stroke-opacity:1;fill-opacity:1;stroke-miterlimit:4;stroke-dasharray:none"
     d="M 34.041016 80.248047 C 34.098462 81.791685 34.330987 83.276957 34.490234 84.789062 L 3.5488281 85.015625 C 6.3141557 123.72646 38.02736 152.19336 79.789062 152.19336 C 91.076063 152.19336 101.62522 150.11784 111.07422 146.33984 L 90.402344 125.76953 C 87.143344 126.51953 83.753813 126.92773 80.257812 126.92773 C 55.428092 126.92773 34.33621 106.63557 34.041016 80.248047 z "
     id="path971" /><path
     style="fill:#ce2b37;stroke:#4d4d4d;stroke-width:0.25;stroke-linecap:butt;stroke-linejoin:miter;stroke-opacity:1;fill-opacity:1;stroke-miterlimit:4;stroke-dasharray:none"
     d="M 104.88281 11.339844 L 96.689453 36.089844 C 94.350903 35.182014 91.965032 34.359929 89.451172 33.849609 C 86.486192 33.247709 83.410739 32.933594 80.255859 32.933594 C 77.100989 32.933594 74.012024 33.247679 71.021484 33.849609 C 68.030934 34.451529 65.139396 35.341298 62.378906 36.492188 C 59.618416 37.643077 56.990111 39.056235 54.525391 40.703125 C 52.060681 42.350025 49.75947 44.230373 47.65625 46.320312 C 45.55303 48.410249 43.646703 50.709434 41.970703 53.189453 C 40.294713 55.669472 38.849066 58.331299 37.666016 61.148438 C 36.482956 63.965578 35.563843 66.937764 34.939453 70.039062 C 39.31088 48.330949 58.174321 32.935547 80.257812 32.935547 C 105.49681 32.935547 125.59375 53.044088 125.59375 79.705078 C 125.59375 84.041078 125.05369 88.212062 124.05469 92.164062 L 147.19922 115.30469 C 153.16622 104.84969 156.50391 92.694344 156.50391 79.527344 C 156.50391 46.755421 135.6117 20.606378 104.88281 11.339844 z "
     id="path969" /><path
     style="fill:#ffffff;stroke:#4d4d4d;stroke-width:0.25;stroke-linecap:butt;stroke-linejoin:miter;stroke-opacity:1;fill-opacity:1;stroke-miterlimit:4;stroke-dasharray:none"
     d="M 79.789062 7.6699219 C 57.928062 7.6699219 38.799469 15.312736 25.136719 28.115234 C 23.428875 29.715547 21.807109 31.395577 20.275391 33.152344 C 17.212315 36.665462 14.511519 40.481808 12.216797 44.5625 C 11.06903 46.603568 10.02351 48.71038 9.0839844 50.878906 C 7.2056198 55.214372 5.7534749 59.795202 4.7714844 64.582031 C 3.7892379 69.370108 3.2773438 74.365172 3.2773438 79.527344 C 3.2773438 81.386841 3.4190897 83.199463 3.5488281 85.015625 L 34.490234 84.789062 C 34.330987 83.276957 34.098462 81.791685 34.041016 80.248047 C 34.038932 80.061771 33.986328 79.891958 33.986328 79.705078 C 33.986328 76.37191 34.31482 73.140933 34.939453 70.039062 C 35.563843 66.937764 36.482956 63.965578 37.666016 61.148438 C 38.849066 58.331299 40.294713 55.669472 41.970703 53.189453 C 43.646703 50.709434 45.55303 48.410249 47.65625 46.320312 C 49.75947 44.230373 52.060681 42.350025 54.525391 40.703125 C 56.990111 39.056235 59.618416 37.643077 62.378906 36.492188 C 65.139396 35.341298 68.030934 34.451529 71.021484 33.849609 C 74.012024 33.247679 77.100989 32.933594 80.255859 32.933594 C 83.410739 32.933594 86.486192 33.247709 89.451172 33.849609 C 91.965032 34.359929 94.350903 35.182014 96.689453 36.089844 L 104.88281 11.339844 C 97.083304 8.9878409 88.680631 7.6699219 79.789062 7.6699219 z "
     id="path897" /></svg>
